<?xml version="1.0" encoding="UTF-8" standalone="no"?>
<!DOCTYPE svg PUBLIC "-//W3C//DTD SVG 1.1//EN" "http://www.w3.org/Graphics/SVG/1.1/DTD/svg11.dtd">
<svg xmlns:xl="http://www.w3.org/1999/xlink" xmlns="http://www.w3.org/2000/svg" version="1.1" xmlns:dc="http://purl.org/dc/elements/1.1/" viewBox="456.3755 293.1387 324.23023 291.7677" width="324.23023" height="291.7677">
  <defs/>
  <g id="Canevas_1" fill="none" fill-opacity="1" stroke-opacity="1" stroke="none" stroke-dasharray="none">
    <title>Canevas 1</title>
    <g id="Canevas_1_Calque_1">
      <title>Calque 1</title>
      <g id="Group_31">
        <title>Canevas_1</title>
        <g id="Group_32">
          <title>Canevas_1_Calque_1</title>
          <g id="Graphic_33">
            <title>path2181</title>
            <path d="M 488.3809 374.3092 C 515.77 315.573 580.34975 283.81877 643.5891 297.99242 C 706.8284 312.16607 751.6773 368.4462 751.3769 433.25375 C 751.0765 498.0613 705.708 553.9233 642.34 567.51016 C 578.972 581.097 514.68934 548.7456 487.8458 489.758" stroke="black" stroke-linecap="butt" stroke-linejoin="round" stroke-width="3"/>
          </g>
        </g>
      </g>
      <g id="Graphic_5">
        <circle cx="685.772" cy="316.47045" r="14.1000227405235" fill="#365f9e"/>
      </g>
      <g id="Graphic_6">
        <circle cx="594.02066" cy="570.8064" r="14.1000227405235" fill="#007200"/>
      </g>
      <g id="Group_13">
        <g id="Graphic_7">
          <rect x="457.8755" y="392.6341" width="21.5" height="28.2" fill="white"/>
          <rect x="457.8755" y="392.6341" width="21.5" height="28.2" stroke="black" stroke-linecap="round" stroke-linejoin="round" stroke-width="3"/>
        </g>
        <g id="Graphic_8">
          <rect x="490.3755" y="418.6341" width="21.5" height="28.2" fill="white"/>
          <rect x="490.3755" y="418.6341" width="21.5" height="28.2" stroke="black" stroke-linecap="round" stroke-linejoin="round" stroke-width="3"/>
        </g>
        <g id="Graphic_9">
          <rect x="491.3755" y="393.1341" width="20.5" height="15" fill="white"/>
          <rect x="491.3755" y="393.1341" width="20.5" height="15" stroke="black" stroke-linecap="round" stroke-linejoin="round" stroke-width="3"/>
        </g>
        <g id="Graphic_10">
          <rect x="459.3755" y="431.6341" width="20" height="15.2" fill="white"/>
          <rect x="459.3755" y="431.6341" width="20" height="15.2" stroke="black" stroke-linecap="round" stroke-linejoin="round" stroke-width="3"/>
        </g>
        <g id="Graphic_11">
          <rect x="458.3755" y="457.6341" width="53.5" height="15" fill="white"/>
          <rect x="458.3755" y="457.6341" width="53.5" height="15" stroke="black" stroke-linecap="round" stroke-linejoin="round" stroke-width="3"/>
        </g>
      </g>
      <g id="Line_14">
        <line x1="581.7895" y1="392.6341" x2="779.1057" y2="392.6341" stroke="#375f9e" stroke-linecap="round" stroke-linejoin="round" stroke-width="3"/>
      </g>
      <g id="Line_15">
        <line x1="581.7895" y1="471.6341" x2="779.1057" y2="471.6341" stroke="#027104" stroke-linecap="round" stroke-linejoin="round" stroke-width="3"/>
      </g>
      <g id="Group_25">
        <title>UMMISCO</title>
        <g id="Graphic_18">
          <path d="M 535.6618 420.4821 L 535.6618 434.7741 C 535.6618 442.2981 539.4058 445.1421 544.3738 445.1421 C 549.6298 445.1421 553.5538 442.0821 553.5538 434.6301 L 553.5538 420.4821 L 550.3858 420.4821 L 550.3858 434.8461 C 550.3858 440.2101 548.0818 442.5861 544.4818 442.5861 C 541.2418 442.5861 538.8298 440.2821 538.8298 434.8461 L 538.8298 420.4821 Z" fill="black"/>
        </g>
        <g id="Graphic_19">
          <path d="M 587.0498 444.7461 L 590.1098 444.7461 L 588.5978 420.4821 L 584.6018 420.4821 L 580.2818 432.2181 C 579.2018 435.2781 578.3378 437.9421 577.7258 440.3901 L 577.6178 440.3901 C 577.0058 437.8701 576.1778 435.2061 575.1698 432.2181 L 571.0298 420.4821 L 567.0338 420.4821 L 565.3418 444.7461 L 568.3298 444.7461 L 568.9778 434.3421 C 569.1938 430.7061 569.3738 426.6381 569.4458 423.6141 L 569.5178 423.6141 C 570.2018 426.4941 571.1738 429.6261 572.3258 433.0461 L 576.2498 444.6021 L 578.6258 444.6021 L 582.9098 432.8301 C 584.1338 429.5181 585.1418 426.4581 585.9698 423.6141 L 586.0778 423.6141 C 586.0418 426.6381 586.2578 430.7061 586.4378 434.0901 Z" fill="black"/>
        </g>
        <g id="Graphic_20">
          <path d="M 622.9938 444.7461 L 626.0538 444.7461 L 624.5418 420.4821 L 620.5458 420.4821 L 616.2258 432.2181 C 615.1458 435.2781 614.2818 437.9421 613.6698 440.3901 L 613.5618 440.3901 C 612.9498 437.8701 612.1218 435.2061 611.1138 432.2181 L 606.9738 420.4821 L 602.9778 420.4821 L 601.2858 444.7461 L 604.2738 444.7461 L 604.9218 434.3421 C 605.1378 430.7061 605.3178 426.6381 605.3898 423.6141 L 605.4618 423.6141 C 606.1458 426.4941 607.1178 429.6261 608.2698 433.0461 L 612.1938 444.6021 L 614.5698 444.6021 L 618.8538 432.8301 C 620.0778 429.5181 621.0858 426.4581 621.9138 423.6141 L 622.0218 423.6141 C 621.9858 426.6381 622.2018 430.7061 622.3818 434.0901 Z" fill="black"/>
        </g>
        <g id="Graphic_21">
          <rect x="637.8778" y="420.4821" width="3.132" height="24.264" fill="black"/>
        </g>
        <g id="Graphic_22">
          <path d="M 652.2578 443.5581 C 653.5538 444.4221 656.1098 445.1421 658.4498 445.1421 C 664.1738 445.1421 666.9458 441.8661 666.9458 438.1221 C 666.9458 434.5581 664.8578 432.5781 660.7538 430.9941 C 657.4058 429.6981 655.9298 428.5821 655.9298 426.3141 C 655.9298 424.6581 657.1898 422.6781 660.5018 422.6781 C 662.6978 422.6781 664.3178 423.3981 665.1098 423.8301 L 665.9738 421.2741 C 664.8938 420.6621 663.0938 420.0861 660.6098 420.0861 C 655.8938 420.0861 652.7618 422.8941 652.7618 426.6741 C 652.7618 430.0941 655.2098 432.1461 659.1698 433.5501 C 662.4458 434.8101 663.7418 436.1061 663.7418 438.3741 C 663.7418 440.8221 661.8698 442.5141 658.6658 442.5141 C 656.5058 442.5141 654.4538 441.7941 653.0498 440.9301 Z" fill="black"/>
        </g>
        <g id="Graphic_23">
          <path d="M 694.5378 441.4701 C 693.2778 442.0821 691.3338 442.4781 689.4258 442.4781 C 683.5218 442.4781 680.1018 438.6621 680.1018 432.7221 C 680.1018 426.3501 683.8818 422.7141 689.5698 422.7141 C 691.5858 422.7141 693.2778 423.1461 694.4658 423.7221 L 695.2218 421.1661 C 694.3938 420.7341 692.4858 420.0861 689.4618 420.0861 C 681.9378 420.0861 676.7898 425.2341 676.7898 432.8301 C 676.7898 440.7861 681.9378 445.1421 688.7778 445.1421 C 691.7298 445.1421 694.0338 444.5301 695.1858 443.9541 Z" fill="black"/>
        </g>
        <g id="Graphic_24">
          <path d="M 715.1818 420.0861 C 708.7018 420.0861 703.9138 425.1261 703.9138 432.8301 C 703.9138 440.1741 708.4138 445.1421 714.8218 445.1421 C 721.0138 445.1421 726.0898 440.7141 726.0898 432.3621 C 726.0898 425.1621 721.8058 420.0861 715.1818 420.0861 Z M 715.0378 422.6421 C 720.2578 422.6421 722.7778 427.6821 722.7778 432.5061 C 722.7778 438.0141 719.9698 442.5861 715.0018 442.5861 C 710.0698 442.5861 707.2618 437.9421 707.2618 432.7581 C 707.2618 427.4301 709.8538 422.6421 715.0378 422.6421 Z" fill="black"/>
        </g>
      </g>
    </g>
  </g>
</svg>
